<svg version="1.1" viewBox="0 0 84.69309462915601 77.79031847133757" xmlns:xlink="http://www.w3.org/1999/xlink" xmlns="http://www.w3.org/2000/svg" style="max-height: 500px" width="84.69309462915601" height="77.79031847133757">
<defs>
<clipPath id="clip1">
  <path d="M 3 51 L 84 51 L 84 74.46875 L 3 74.46875 Z M 3 51"/>
</clipPath>
</defs>
<g id="surface1">
<path d="M 43.636719 0.351563 L 83.378906 68.351563 C 83.378906 68.351563 83.03125 70.089844 82.15625 69.128906 C 81.277344 68.171875 68.035156 58.515625 62.3125 55.234375 C 56.589844 51.957031 46.796875 48.347656 46.296875 48.011719 C 45.796875 47.679688 42.960938 45.078125 42.191406 40.671875 C 40.679688 32.003906 40.359375 16.160156 40.746094 9.378906 C 40.921875 6.359375 41.125 2.613281 41.679688 1.015625 C 42.054688 -0.0664063 43.28125 -0.265625 43.636719 0.351563" style="stroke:none;fill-rule:nonzero;fill:rgb(30.599976%,62.69989%,84.698486%);fill-opacity:1;"/>
<g clip-rule="nonzero" clip-path="url(#clip1)">
<path d="M 4.84375 73.023438 C 4.84375 73.023438 20.945313 66.339844 28.5 60.949219 C 36.058594 55.558594 39.71875 53.121094 40.675781 52.402344 C 41.636719 51.679688 42.949219 50.707031 51.640625 53.847656 C 61.210938 57.304688 75.835938 66.515625 78.222656 68.40625 C 80.613281 70.296875 85.769531 74.578125 81.152344 74.46875 C 76.539063 74.355469 24.847656 74.425781 5.289063 74.46875 C 4.078125 74.46875 2.40625 73.964844 4.84375 73.023438" style="stroke:none;fill-rule:nonzero;fill:rgb(30.599976%,62.69989%,84.698486%);fill-opacity:1;"/>
</g>
<path d="M 39.425781 1.667969 C 39.496094 4.394531 38.300781 17.941406 38.136719 20.441406 C 37.96875 22.941406 37.871094 33.699219 38.011719 36.5 C 38.144531 39.183594 39.34375 46.621094 37.609375 48.953125 C 35.828125 51.355469 22.855469 63.59375 6.371094 70.046875 C -1.550781 73.148438 -1.15625 71.457031 2.535156 64.792969 C 5.554688 59.355469 39.386719 0.179688 39.425781 1.667969" style="stroke:none;fill-rule:nonzero;fill:rgb(30.599976%,62.69989%,84.698486%);fill-opacity:1;"/>
<path d="M 120.167969 47.816406 C 120.167969 48.078125 120.152344 48.304688 120.117188 48.496094 C 120.085938 48.691406 120.035156 48.847656 119.964844 48.960938 C 119.894531 49.078125 119.808594 49.164063 119.707031 49.21875 C 119.605469 49.273438 119.492188 49.300781 119.371094 49.300781 L 110.839844 49.300781 L 110.839844 72.472656 C 110.839844 72.582031 110.808594 72.675781 110.742188 72.765625 C 110.683594 72.84375 110.570313 72.90625 110.417969 72.957031 C 110.261719 73.003906 110.054688 73.046875 109.796875 73.082031 C 109.535156 73.113281 109.210938 73.132813 108.824219 73.132813 C 108.449219 73.132813 108.128906 73.113281 107.863281 73.082031 C 107.597656 73.046875 107.386719 73.003906 107.230469 72.957031 C 107.074219 72.90625 106.964844 72.84375 106.902344 72.765625 C 106.839844 72.675781 106.808594 72.582031 106.808594 72.472656 L 106.808594 49.300781 L 98.28125 49.300781 C 98.15625 49.300781 98.042969 49.273438 97.9375 49.21875 C 97.835938 49.164063 97.757813 49.078125 97.691406 48.960938 C 97.628906 48.847656 97.582031 48.691406 97.542969 48.496094 C 97.503906 48.304688 97.484375 48.078125 97.484375 47.816406 C 97.484375 47.554688 97.503906 47.324219 97.542969 47.128906 C 97.582031 46.921875 97.628906 46.761719 97.691406 46.640625 C 97.757813 46.515625 97.835938 46.425781 97.9375 46.371094 C 98.042969 46.316406 98.15625 46.289063 98.28125 46.289063 L 119.371094 46.289063 C 119.492188 46.289063 119.605469 46.316406 119.707031 46.371094 C 119.808594 46.425781 119.894531 46.515625 119.964844 46.640625 C 120.035156 46.761719 120.085938 46.921875 120.117188 47.128906 C 120.152344 47.324219 120.167969 47.554688 120.167969 47.816406" style="stroke:none;fill-rule:nonzero;fill:rgb(30.599976%,62.69989%,84.698486%);fill-opacity:1;"/>
<path d="M 152.855469 65.554688 C 152.855469 64.757813 152.714844 64.054688 152.425781 63.445313 C 152.132813 62.84375 151.71875 62.332031 151.160156 61.917969 C 150.609375 61.503906 149.914063 61.191406 149.078125 60.980469 C 148.246094 60.769531 147.195313 60.660156 145.9375 60.660156 L 141.117188 60.660156 L 141.117188 70.078125 L 146.964844 70.078125 C 147.886719 70.078125 148.6875 69.980469 149.375 69.785156 C 150.0625 69.59375 150.664063 69.3125 151.183594 68.929688 C 151.707031 68.550781 152.113281 68.078125 152.410156 67.515625 C 152.710938 66.949219 152.855469 66.296875 152.855469 65.554688 Z M 151.03125 53.390625 C 151.03125 52.742188 150.929688 52.15625 150.726563 51.636719 C 150.523438 51.113281 150.203125 50.671875 149.765625 50.304688 C 149.332031 49.9375 148.761719 49.660156 148.058594 49.46875 C 147.359375 49.273438 146.433594 49.175781 145.277344 49.175781 L 141.117188 49.175781 L 141.117188 57.828125 L 145.699219 57.828125 C 146.746094 57.828125 147.582031 57.710938 148.222656 57.46875 C 148.863281 57.226563 149.390625 56.90625 149.816406 56.5 C 150.234375 56.089844 150.546875 55.617188 150.738281 55.074219 C 150.933594 54.53125 151.03125 53.96875 151.03125 53.390625 Z M 157.097656 65.347656 C 157.097656 66.1875 156.976563 66.964844 156.734375 67.667969 C 156.496094 68.378906 156.152344 69.015625 155.71875 69.578125 C 155.277344 70.144531 154.753906 70.640625 154.132813 71.0625 C 153.519531 71.492188 152.824219 71.855469 152.050781 72.140625 C 151.273438 72.429688 150.445313 72.644531 149.566406 72.792969 C 148.683594 72.933594 147.671875 73.007813 146.53125 73.007813 L 138.609375 73.007813 C 138.25 73.007813 137.910156 72.902344 137.59375 72.683594 C 137.273438 72.472656 137.113281 72.097656 137.113281 71.5625 L 137.113281 47.734375 C 137.113281 47.199219 137.273438 46.824219 137.59375 46.613281 C 137.910156 46.398438 138.25 46.289063 138.609375 46.289063 L 145.5 46.289063 C 147.308594 46.289063 148.796875 46.4375 149.953125 46.742188 C 151.105469 47.042969 152.074219 47.488281 152.847656 48.066406 C 153.621094 48.644531 154.199219 49.351563 154.589844 50.191406 C 154.984375 51.03125 155.175781 51.984375 155.175781 53.039063 C 155.175781 53.675781 155.09375 54.28125 154.917969 54.859375 C 154.746094 55.433594 154.496094 55.972656 154.15625 56.457031 C 153.820313 56.945313 153.398438 57.386719 152.890625 57.769531 C 152.382813 58.15625 151.804688 58.46875 151.148438 58.71875 C 151.976563 58.855469 152.746094 59.109375 153.46875 59.472656 C 154.183594 59.839844 154.8125 60.300781 155.351563 60.867188 C 155.890625 61.433594 156.3125 62.089844 156.632813 62.847656 C 156.941406 63.609375 157.097656 64.4375 157.097656 65.347656" style="stroke:none;fill-rule:nonzero;fill:rgb(30.599976%,62.69989%,84.698486%);fill-opacity:1;"/>
<path d="M 196.023438 69.230469 C 196.023438 69.449219 196.015625 69.640625 196 69.808594 C 195.984375 69.972656 195.957031 70.117188 195.917969 70.242188 C 195.878906 70.363281 195.824219 70.476563 195.765625 70.570313 C 195.703125 70.667969 195.589844 70.785156 195.4375 70.921875 C 195.28125 71.058594 194.953125 71.269531 194.449219 71.554688 C 193.953125 71.835938 193.332031 72.109375 192.589844 72.378906 C 191.847656 72.644531 190.996094 72.875 190.035156 73.0625 C 189.078125 73.246094 188.023438 73.339844 186.886719 73.339844 C 184.917969 73.339844 183.140625 73.050781 181.554688 72.472656 C 179.96875 71.894531 178.617188 71.039063 177.5 69.910156 C 176.382813 68.78125 175.523438 67.390625 174.921875 65.730469 C 174.320313 64.070313 174.019531 62.160156 174.019531 59.996094 C 174.019531 57.78125 174.34375 55.808594 174.992188 54.070313 C 175.640625 52.335938 176.550781 50.871094 177.71875 49.664063 C 178.890625 48.457031 180.292969 47.542969 181.929688 46.910156 C 183.558594 46.273438 185.367188 45.957031 187.351563 45.957031 C 188.226563 45.957031 189.078125 46.027344 189.90625 46.175781 C 190.734375 46.320313 191.5 46.5 192.203125 46.722656 C 192.90625 46.941406 193.53125 47.199219 194.074219 47.488281 C 194.621094 47.773438 195.003906 48.011719 195.214844 48.199219 C 195.421875 48.382813 195.5625 48.527344 195.625 48.621094 C 195.6875 48.71875 195.738281 48.832031 195.773438 48.960938 C 195.8125 49.089844 195.84375 49.25 195.871094 49.425781 C 195.894531 49.605469 195.90625 49.820313 195.90625 50.066406 C 195.90625 50.34375 195.890625 50.578125 195.859375 50.769531 C 195.824219 50.960938 195.777344 51.125 195.71875 51.257813 C 195.65625 51.386719 195.578125 51.480469 195.496094 51.542969 C 195.40625 51.605469 195.296875 51.636719 195.171875 51.636719 C 194.957031 51.636719 194.648438 51.503906 194.257813 51.234375 C 193.863281 50.964844 193.355469 50.671875 192.738281 50.347656 C 192.117188 50.023438 191.359375 49.726563 190.476563 49.460938 C 189.589844 49.1875 188.523438 49.054688 187.285156 49.054688 C 185.933594 49.054688 184.703125 49.292969 183.597656 49.769531 C 182.488281 50.242188 181.542969 50.941406 180.757813 51.863281 C 179.972656 52.789063 179.359375 53.910156 178.929688 55.238281 C 178.5 56.570313 178.289063 58.085938 178.289063 59.792969 C 178.289063 61.484375 178.492188 62.984375 178.90625 64.285156 C 179.324219 65.582031 179.921875 66.671875 180.699219 67.546875 C 181.476563 68.421875 182.429688 69.082031 183.5625 69.527344 C 184.691406 69.976563 185.972656 70.203125 187.402344 70.203125 C 188.609375 70.203125 189.664063 70.070313 190.570313 69.808594 C 191.472656 69.546875 192.242188 69.253906 192.878906 68.929688 C 193.515625 68.605469 194.035156 68.3125 194.445313 68.054688 C 194.851563 67.789063 195.171875 67.660156 195.40625 67.660156 C 195.519531 67.660156 195.613281 67.683594 195.695313 67.722656 C 195.769531 67.765625 195.832031 67.84375 195.882813 67.957031 C 195.929688 68.078125 195.964844 68.238281 195.988281 68.445313 C 196.007813 68.652344 196.023438 68.914063 196.023438 69.230469" style="stroke:none;fill-rule:nonzero;fill:rgb(30.599976%,62.69989%,84.698486%);fill-opacity:1;"/>
<path d="M 248.007813 65.554688 C 248.007813 64.757813 247.863281 64.054688 247.574219 63.445313 C 247.285156 62.84375 246.863281 62.332031 246.3125 61.917969 C 245.757813 61.503906 245.066406 61.191406 244.226563 60.980469 C 243.394531 60.769531 242.347656 60.660156 241.082031 60.660156 L 236.265625 60.660156 L 236.265625 70.078125 L 242.113281 70.078125 C 243.03125 70.078125 243.835938 69.980469 244.523438 69.785156 C 245.207031 69.59375 245.8125 69.3125 246.335938 68.929688 C 246.855469 68.550781 247.265625 68.078125 247.5625 67.515625 C 247.855469 66.949219 248.007813 66.296875 248.007813 65.554688 Z M 246.175781 53.390625 C 246.175781 52.742188 246.078125 52.15625 245.875 51.636719 C 245.671875 51.113281 245.355469 50.671875 244.914063 50.304688 C 244.476563 49.9375 243.910156 49.660156 243.207031 49.46875 C 242.507813 49.273438 241.582031 49.175781 240.425781 49.175781 L 236.265625 49.175781 L 236.265625 57.828125 L 240.847656 57.828125 C 241.894531 57.828125 242.734375 57.710938 243.375 57.46875 C 244.011719 57.226563 244.542969 56.90625 244.964844 56.5 C 245.378906 56.089844 245.691406 55.617188 245.886719 55.074219 C 246.082031 54.53125 246.175781 53.96875 246.175781 53.390625 Z M 252.246094 65.347656 C 252.246094 66.1875 252.125 66.964844 251.886719 67.667969 C 251.644531 68.378906 251.300781 69.015625 250.863281 69.578125 C 250.425781 70.144531 249.898438 70.640625 249.28125 71.0625 C 248.664063 71.492188 247.96875 71.855469 247.195313 72.140625 C 246.421875 72.429688 245.597656 72.644531 244.714844 72.792969 C 243.832031 72.933594 242.820313 73.007813 241.679688 73.007813 L 233.761719 73.007813 C 233.402344 73.007813 233.058594 72.902344 232.738281 72.683594 C 232.421875 72.472656 232.261719 72.097656 232.261719 71.5625 L 232.261719 47.734375 C 232.261719 47.199219 232.421875 46.824219 232.738281 46.613281 C 233.058594 46.398438 233.402344 46.289063 233.761719 46.289063 L 240.648438 46.289063 C 242.457031 46.289063 243.945313 46.4375 245.101563 46.742188 C 246.253906 47.042969 247.222656 47.488281 247.996094 48.066406 C 248.765625 48.644531 249.347656 49.351563 249.738281 50.191406 C 250.132813 51.03125 250.324219 51.984375 250.324219 53.039063 C 250.324219 53.675781 250.242188 54.28125 250.066406 54.859375 C 249.898438 55.433594 249.640625 55.972656 249.308594 56.457031 C 248.96875 56.945313 248.546875 57.386719 248.039063 57.769531 C 247.535156 58.15625 246.953125 58.46875 246.296875 58.71875 C 247.125 58.855469 247.894531 59.109375 248.617188 59.472656 C 249.335938 59.839844 249.960938 60.300781 250.503906 60.867188 C 251.039063 61.433594 251.464844 62.089844 251.777344 62.847656 C 252.089844 63.609375 252.246094 64.4375 252.246094 65.347656" style="stroke:none;fill-rule:nonzero;fill:rgb(30.599976%,62.69989%,84.698486%);fill-opacity:1;"/>
<path d="M 275.414063 63.15625 L 280.640625 49.839844 L 280.664063 49.839844 L 285.957031 63.15625 L 287.015625 65.988281 L 289.617188 72.492188 C 289.675781 72.613281 289.746094 72.71875 289.816406 72.800781 C 289.882813 72.882813 289.996094 72.949219 290.140625 72.996094 C 290.289063 73.046875 290.507813 73.082031 290.800781 73.101563 C 291.085938 73.121094 291.472656 73.132813 291.960938 73.132813 C 292.445313 73.132813 292.828125 73.117188 293.117188 73.089844 C 293.40625 73.0625 293.613281 73 293.738281 72.902344 C 293.859375 72.808594 293.925781 72.667969 293.914063 72.480469 C 293.90625 72.292969 293.839844 72.050781 293.714844 71.75 L 283.546875 46.925781 C 283.484375 46.777344 283.398438 46.648438 283.289063 46.546875 C 283.179688 46.445313 283.023438 46.363281 282.816406 46.3125 C 282.617188 46.253906 282.351563 46.214844 282.023438 46.195313 C 281.699219 46.175781 281.28125 46.164063 280.78125 46.164063 C 280.3125 46.164063 279.925781 46.175781 279.621094 46.195313 C 279.320313 46.214844 279.070313 46.253906 278.875 46.3125 C 278.675781 46.363281 278.527344 46.4375 278.425781 46.53125 C 278.328125 46.632813 278.246094 46.753906 278.179688 46.910156 L 268.015625 71.730469 C 267.882813 72.03125 267.820313 72.273438 267.8125 72.464844 C 267.804688 72.644531 267.859375 72.785156 267.976563 72.882813 C 268.09375 72.980469 268.292969 73.046875 268.585938 73.082031 C 268.875 73.113281 269.246094 73.132813 269.699219 73.132813 C 270.136719 73.132813 270.492188 73.117188 270.765625 73.089844 C 271.035156 73.0625 271.246094 73.019531 271.402344 72.957031 C 271.546875 72.894531 271.660156 72.816406 271.738281 72.730469 C 271.8125 72.636719 271.878906 72.535156 271.929688 72.410156 L 274.40625 65.988281" style="stroke:none;fill-rule:nonzero;fill:rgb(30.599976%,62.69989%,84.698486%);fill-opacity:1;"/>
<path d="M 280.535156 68.359375 L 283.714844 68.351563 C 283.714844 68.351563 283.929688 68.359375 284.082031 68.359375 C 284.234375 68.359375 284.355469 68.355469 284.445313 68.347656 C 284.535156 68.34375 284.597656 68.324219 284.636719 68.300781 C 284.679688 68.273438 284.695313 68.242188 284.691406 68.195313 C 284.691406 68.144531 284.667969 68.082031 284.632813 68.007813 L 281.449219 61.699219 C 281.421875 61.660156 281.402344 61.625 281.363281 61.601563 C 281.332031 61.574219 281.28125 61.550781 281.214844 61.542969 C 281.152344 61.527344 281.074219 61.511719 280.972656 61.511719 C 280.863281 61.503906 280.738281 61.503906 280.578125 61.503906 C 280.433594 61.503906 280.3125 61.503906 280.21875 61.511719 C 280.117188 61.511719 280.039063 61.527344 279.980469 61.542969 C 279.921875 61.550781 279.875 61.570313 279.839844 61.601563 C 279.808594 61.621094 279.785156 61.652344 279.761719 61.691406 L 276.574219 68.003906 C 276.539063 68.078125 276.515625 68.140625 276.515625 68.191406 C 276.515625 68.234375 276.53125 68.269531 276.566406 68.296875 C 276.605469 68.316406 276.667969 68.335938 276.757813 68.347656 C 276.851563 68.355469 276.96875 68.359375 277.109375 68.359375 C 277.246094 68.359375 277.359375 68.355469 277.441406 68.347656 C 277.527344 68.34375 280.535156 68.359375 280.535156 68.359375" style="stroke:none;fill-rule:nonzero;fill:rgb(30.599976%,62.69989%,84.698486%);fill-opacity:1;"/>
<path d="M 332.460938 71.542969 C 332.460938 71.816406 332.402344 72.050781 332.300781 72.246094 C 332.195313 72.4375 332.054688 72.59375 331.886719 72.71875 C 331.71875 72.84375 331.523438 72.933594 331.316406 72.984375 C 331.109375 73.042969 330.898438 73.070313 330.6875 73.070313 L 329.355469 73.070313 C 328.933594 73.070313 328.566406 73.03125 328.253906 72.957031 C 327.9375 72.882813 327.636719 72.746094 327.355469 72.542969 C 327.074219 72.34375 326.789063 72.074219 326.511719 71.730469 C 326.222656 71.382813 325.925781 70.945313 325.609375 70.40625 L 316.355469 55.207031 C 315.871094 54.425781 315.386719 53.601563 314.894531 52.742188 C 314.40625 51.882813 313.945313 51.046875 313.523438 50.234375 L 313.476563 50.234375 C 313.507813 51.222656 313.53125 52.234375 313.550781 53.265625 C 313.5625 54.300781 313.570313 55.324219 313.570313 56.34375 L 313.570313 72.472656 C 313.570313 72.566406 313.539063 72.660156 313.46875 72.75 C 313.40625 72.839844 313.296875 72.90625 313.140625 72.957031 C 312.984375 73.003906 312.777344 73.046875 312.523438 73.082031 C 312.265625 73.113281 311.9375 73.132813 311.542969 73.132813 C 311.148438 73.132813 310.824219 73.113281 310.566406 73.082031 C 310.308594 73.046875 310.109375 73.003906 309.960938 72.957031 C 309.8125 72.90625 309.707031 72.839844 309.640625 72.75 C 309.574219 72.660156 309.539063 72.566406 309.539063 72.472656 L 309.539063 47.816406 C 309.539063 47.265625 309.71875 46.871094 310.074219 46.640625 C 310.425781 46.40625 310.816406 46.289063 311.234375 46.289063 L 313.21875 46.289063 C 313.683594 46.289063 314.074219 46.320313 314.390625 46.390625 C 314.703125 46.460938 314.984375 46.574219 315.238281 46.730469 C 315.488281 46.890625 315.730469 47.113281 315.960938 47.394531 C 316.199219 47.675781 316.441406 48.03125 316.699219 48.457031 L 323.808594 60.183594 C 324.246094 60.902344 324.671875 61.601563 325.078125 62.28125 C 325.484375 62.964844 325.875 63.632813 326.253906 64.292969 C 326.628906 64.957031 327.003906 65.605469 327.375 66.246094 C 327.742188 66.886719 328.109375 67.53125 328.476563 68.175781 L 328.496094 68.175781 C 328.46875 67.089844 328.449219 65.957031 328.441406 64.78125 C 328.429688 63.605469 328.425781 62.46875 328.425781 61.382813 L 328.425781 46.886719 C 328.425781 46.789063 328.460938 46.703125 328.527344 46.617188 C 328.59375 46.53125 328.707031 46.460938 328.855469 46.40625 C 329.015625 46.339844 329.222656 46.296875 329.480469 46.269531 C 329.734375 46.238281 330.066406 46.226563 330.484375 46.226563 C 330.84375 46.226563 331.15625 46.238281 331.417969 46.269531 C 331.683594 46.296875 331.886719 46.339844 332.035156 46.40625 C 332.183594 46.460938 332.289063 46.53125 332.359375 46.617188 C 332.425781 46.703125 332.460938 46.789063 332.460938 46.886719 L 332.460938 71.542969" style="stroke:none;fill-rule:nonzero;fill:rgb(30.599976%,62.69989%,84.698486%);fill-opacity:1;"/>
<path d="M 370 72.429688 C 370 72.542969 369.972656 72.636719 369.914063 72.730469 C 369.863281 72.816406 369.757813 72.890625 369.601563 72.945313 C 369.445313 73 369.234375 73.046875 368.96875 73.082031 C 368.703125 73.113281 368.359375 73.132813 367.933594 73.132813 C 367.394531 73.132813 366.945313 73.109375 366.601563 73.070313 C 366.257813 73.027344 366 72.953125 365.828125 72.84375 C 365.65625 72.730469 365.515625 72.609375 365.40625 72.472656 L 354.253906 59.113281 L 354.253906 72.472656 C 354.253906 72.566406 354.21875 72.660156 354.160156 72.75 C 354.097656 72.839844 353.992188 72.90625 353.832031 72.957031 C 353.675781 73.003906 353.46875 73.046875 353.210938 73.082031 C 352.953125 73.113281 352.628906 73.132813 352.234375 73.132813 C 351.863281 73.132813 351.542969 73.113281 351.277344 73.082031 C 351.011719 73.046875 350.800781 73.003906 350.644531 72.957031 C 350.484375 72.90625 350.378906 72.839844 350.316406 72.75 C 350.253906 72.660156 350.226563 72.566406 350.226563 72.472656 L 350.226563 46.824219 C 350.226563 46.714844 350.253906 46.617188 350.316406 46.53125 C 350.378906 46.453125 350.484375 46.390625 350.644531 46.339844 C 350.800781 46.292969 351.011719 46.25 351.277344 46.214844 C 351.542969 46.183594 351.863281 46.164063 352.234375 46.164063 C 352.628906 46.164063 352.953125 46.183594 353.210938 46.214844 C 353.46875 46.25 353.675781 46.292969 353.832031 46.339844 C 353.992188 46.390625 354.097656 46.453125 354.160156 46.53125 C 354.21875 46.617188 354.253906 46.714844 354.253906 46.824219 L 354.253906 58.699219 L 364.984375 46.824219 C 365.078125 46.703125 365.1875 46.597656 365.3125 46.515625 C 365.4375 46.433594 365.589844 46.367188 365.769531 46.320313 C 365.945313 46.273438 366.167969 46.234375 366.429688 46.207031 C 366.6875 46.179688 367.015625 46.164063 367.421875 46.164063 C 367.828125 46.164063 368.15625 46.183594 368.40625 46.214844 C 368.65625 46.25 368.855469 46.296875 369.003906 46.351563 C 369.148438 46.40625 369.253906 46.476563 369.308594 46.558594 C 369.363281 46.640625 369.390625 46.730469 369.390625 46.824219 C 369.390625 47.003906 369.339844 47.183594 369.238281 47.363281 C 369.136719 47.542969 368.941406 47.789063 368.664063 48.105469 L 358.609375 58.699219 L 369.433594 71.378906 C 369.703125 71.738281 369.863281 71.980469 369.914063 72.109375 C 369.972656 72.242188 370 72.347656 370 72.429688" style="stroke:none;fill-rule:nonzero;fill:rgb(30.599976%,62.69989%,84.698486%);fill-opacity:1;"/>
<path d="M 103.382813 11.261719 C 101.402344 12.496094 100.414063 14.117188 100.414063 16.128906 L 100.414063 28.957031 C 100.414063 30.457031 100.984375 31.761719 102.121094 32.859375 C 103.261719 33.960938 104.597656 34.511719 106.144531 34.511719 C 107.117188 34.511719 108.054688 34.253906 108.949219 33.742188 C 110.871094 32.648438 111.835938 31.050781 111.835938 28.957031 L 111.835938 15.96875 C 111.835938 14.46875 111.261719 13.167969 110.128906 12.066406 C 108.992188 10.972656 107.660156 10.417969 106.144531 10.417969 C 105.195313 10.417969 104.273438 10.699219 103.382813 11.261719 Z M 115.980469 12.308594 C 115.386719 13.328125 115.085938 14.578125 115.085938 16.050781 L 115.085938 28.957031 C 115.085938 30.40625 114.652344 31.742188 113.78125 32.960938 C 112.917969 34.179688 111.800781 35.152344 110.433594 35.875 C 109.0625 36.597656 107.632813 36.960938 106.144531 36.960938 C 104.679688 36.960938 103.261719 36.597656 101.878906 35.875 C 98.734375 34.242188 97.164063 31.9375 97.164063 28.957031 L 97.164063 16.128906 C 97.164063 14.65625 97.59375 13.300781 98.464844 12.066406 C 99.332031 10.835938 100.453125 9.84375 101.835938 9.09375 C 103.21875 8.339844 104.652344 7.964844 106.144531 7.964844 C 107.445313 7.964844 108.734375 8.273438 110.027344 8.890625 C 111.3125 9.507813 112.375 10.324219 113.21875 11.347656 C 114.703125 9.09375 116.683594 7.964844 119.148438 7.964844 C 120.339844 7.964844 121.492188 8.246094 122.601563 8.808594 C 125.179688 10.125 126.460938 11.988281 126.460938 14.398438 L 126.460938 30.527344 C 126.460938 31.710938 126.273438 32.886719 125.894531 34.066406 C 125.433594 35.460938 124.796875 36.425781 123.984375 36.960938 L 120.734375 36.960938 C 122.386719 35.597656 123.214844 33.449219 123.214844 30.527344 L 123.214844 14.398438 C 123.214844 13.730469 123.023438 13.101563 122.644531 12.511719 C 121.75 11.117188 120.585938 10.417969 119.148438 10.417969 C 117.765625 10.417969 116.710938 11.050781 115.980469 12.308594" style="stroke:none;fill-rule:nonzero;fill:rgb(30.599976%,62.69989%,84.698486%);fill-opacity:1;"/>
<path d="M 134.0625 14.320313 C 133.492188 16.0625 133.207031 18.503906 133.207031 21.640625 C 133.207031 28.851563 134.289063 33.960938 136.460938 36.960938 L 133.207031 36.960938 C 132.097656 35.511719 131.242188 33.0625 130.648438 29.605469 C 130.1875 26.921875 129.960938 24.269531 129.960938 21.640625 C 129.960938 17.511719 130.390625 14.441406 131.257813 12.429688 C 132.53125 9.453125 135.226563 7.964844 139.34375 7.964844 C 143.464844 7.964844 146.15625 9.4375 147.433594 12.386719 C 148.269531 14.347656 148.691406 17.433594 148.691406 21.640625 C 148.691406 24.402344 148.449219 27.203125 147.960938 30.042969 C 147.390625 33.3125 146.550781 35.621094 145.441406 36.960938 L 142.191406 36.960938 C 142.976563 35.941406 143.613281 34.523438 144.097656 32.699219 C 144.996094 29.425781 145.441406 25.738281 145.441406 21.640625 C 145.441406 18.394531 145.171875 15.957031 144.628906 14.320313 C 143.757813 11.722656 142 10.417969 139.34375 10.417969 C 136.691406 10.417969 134.925781 11.722656 134.0625 14.320313" style="stroke:none;fill-rule:nonzero;fill:rgb(30.599976%,62.69989%,84.698486%);fill-opacity:1;"/>
<path d="M 159.054688 24.089844 C 156.914063 25.246094 155.84375 26.867188 155.84375 28.957031 C 155.84375 30.457031 156.480469 31.761719 157.753906 32.859375 C 159.027344 33.960938 160.4375 34.511719 161.984375 34.511719 C 162.902344 34.511719 163.851563 34.253906 164.824219 33.742188 C 166.992188 32.59375 168.078125 30.996094 168.078125 28.957031 C 168.078125 27.992188 167.777344 27.070313 167.183594 26.1875 C 165.855469 24.253906 164.121094 23.289063 161.984375 23.289063 C 161.03125 23.289063 160.058594 23.558594 159.054688 24.089844 Z M 156.738281 8.851563 L 156.738281 11.183594 L 164.824219 11.183594 L 164.824219 20.875 C 166.640625 21.464844 168.15625 22.484375 169.378906 23.933594 C 170.675781 25.460938 171.328125 27.132813 171.328125 28.957031 C 171.328125 31.261719 170.339844 33.195313 168.359375 34.75 C 166.492188 36.222656 164.363281 36.960938 161.984375 36.960938 C 159.625 36.960938 157.5 36.222656 155.601563 34.75 C 153.597656 33.167969 152.59375 31.238281 152.59375 28.957031 C 152.59375 27.484375 153.019531 26.132813 153.875 24.894531 C 154.726563 23.664063 155.84375 22.683594 157.226563 21.960938 C 158.605469 21.234375 160.058594 20.875 161.574219 20.875 L 161.574219 13.636719 L 157.917969 13.636719 C 156.535156 13.636719 155.734375 13.621094 155.523438 13.597656 C 154.460938 13.460938 153.839844 13.085938 153.648438 12.472656 C 153.542969 12.148438 153.488281 11.597656 153.488281 10.820313 L 153.488281 8.851563 L 156.738281 8.851563" style="stroke:none;fill-rule:nonzero;fill:rgb(30.599976%,62.69989%,84.698486%);fill-opacity:1;"/>
<path d="M 180.476563 14.320313 C 179.90625 16.0625 179.621094 18.503906 179.621094 21.640625 C 179.621094 28.851563 180.707031 33.960938 182.875 36.960938 L 179.621094 36.960938 C 178.515625 35.511719 177.660156 33.0625 177.066406 29.605469 C 176.605469 26.921875 176.375 24.269531 176.375 21.640625 C 176.375 17.511719 176.808594 14.441406 177.675781 12.429688 C 178.945313 9.453125 181.640625 7.964844 185.761719 7.964844 C 189.878906 7.964844 192.574219 9.4375 193.847656 12.386719 C 194.6875 14.347656 195.105469 17.433594 195.105469 21.640625 C 195.105469 24.402344 194.863281 27.203125 194.375 30.042969 C 193.804688 33.3125 192.96875 35.621094 191.859375 36.960938 L 188.605469 36.960938 C 189.390625 35.941406 190.027344 34.523438 190.515625 32.699219 C 191.410156 29.425781 191.859375 25.738281 191.859375 21.640625 C 191.859375 18.394531 191.585938 15.957031 191.046875 14.320313 C 190.175781 11.722656 188.414063 10.417969 185.761719 10.417969 C 183.105469 10.417969 181.34375 11.722656 180.476563 14.320313" style="stroke:none;fill-rule:nonzero;fill:rgb(30.599976%,62.69989%,84.698486%);fill-opacity:1;"/>
<path d="M 202.257813 8.851563 L 202.257813 29.324219 C 202.257813 32.78125 204.03125 34.511719 207.582031 34.511719 C 209.449219 34.511719 210.804688 34.105469 211.648438 33.304688 C 212.484375 32.5 212.90625 31.167969 212.90625 29.324219 C 212.90625 27.953125 212.621094 26.84375 212.050781 25.984375 C 211.808594 25.609375 211.292969 25.058594 210.507813 24.332031 C 209.9375 23.855469 209.65625 23.371094 209.65625 22.886719 C 209.65625 21.839844 209.914063 21.171875 210.425781 20.875 L 213.675781 20.875 C 213.164063 21.0625 212.90625 21.617188 212.90625 22.523438 C 212.90625 23.007813 213.449219 23.710938 214.53125 24.636719 C 215.613281 25.558594 216.15625 27.125 216.15625 29.324219 C 216.15625 30.742188 215.832031 32.046875 215.179688 33.21875 C 213.800781 35.714844 211.265625 36.960938 207.582031 36.960938 C 205.117188 36.960938 203.101563 36.304688 201.527344 34.988281 C 199.847656 33.625 199.007813 31.734375 199.007813 29.324219 L 199.007813 8.851563 L 202.257813 8.851563" style="stroke:none;fill-rule:nonzero;fill:rgb(30.599976%,62.69989%,84.698486%);fill-opacity:1;"/>
<path d="M 224.488281 14.320313 C 223.921875 16.0625 223.640625 18.503906 223.640625 21.640625 C 223.640625 28.851563 224.722656 33.960938 226.890625 36.960938 L 223.640625 36.960938 C 222.527344 35.511719 221.675781 33.0625 221.078125 29.605469 C 220.617188 26.921875 220.386719 24.269531 220.386719 21.640625 C 220.386719 17.511719 220.820313 14.441406 221.6875 12.429688 C 222.960938 9.453125 225.65625 7.964844 229.773438 7.964844 C 233.894531 7.964844 236.585938 9.4375 237.863281 12.386719 C 238.699219 14.347656 239.121094 17.433594 239.121094 21.640625 C 239.121094 24.402344 238.878906 27.203125 238.390625 30.042969 C 237.820313 33.3125 236.980469 35.621094 235.871094 36.960938 L 232.617188 36.960938 C 233.402344 35.941406 234.039063 34.523438 234.527344 32.699219 C 235.425781 29.425781 235.871094 25.738281 235.871094 21.640625 C 235.871094 18.394531 235.597656 15.957031 235.058594 14.320313 C 234.1875 11.722656 232.429688 10.417969 229.773438 10.417969 C 227.117188 10.417969 225.359375 11.722656 224.488281 14.320313" style="stroke:none;fill-rule:nonzero;fill:rgb(30.599976%,62.69989%,84.698486%);fill-opacity:1;"/>
<path d="M 270.621094 24.089844 C 268.480469 25.246094 267.410156 26.867188 267.410156 28.957031 C 267.410156 30.457031 268.046875 31.761719 269.316406 32.859375 C 270.59375 33.960938 272.003906 34.511719 273.546875 34.511719 C 274.464844 34.511719 275.417969 34.253906 276.390625 33.742188 C 278.558594 32.59375 279.644531 30.996094 279.644531 28.957031 C 279.644531 27.992188 279.34375 27.070313 278.75 26.1875 C 277.421875 24.253906 275.6875 23.289063 273.546875 23.289063 C 272.597656 23.289063 271.625 23.558594 270.621094 24.089844 Z M 268.304688 8.851563 L 268.304688 11.183594 L 276.390625 11.183594 L 276.390625 20.875 C 278.207031 21.464844 279.722656 22.484375 280.941406 23.933594 C 282.242188 25.460938 282.894531 27.132813 282.894531 28.957031 C 282.894531 31.261719 281.90625 33.195313 279.925781 34.75 C 278.058594 36.222656 275.929688 36.960938 273.546875 36.960938 C 271.191406 36.960938 269.0625 36.222656 267.164063 34.75 C 265.164063 33.167969 264.160156 31.238281 264.160156 28.957031 C 264.160156 27.484375 264.589844 26.132813 265.441406 24.894531 C 266.292969 23.664063 267.410156 22.683594 268.792969 21.960938 C 270.171875 21.234375 271.625 20.875 273.140625 20.875 L 273.140625 13.636719 L 269.484375 13.636719 C 268.101563 13.636719 267.300781 13.621094 267.085938 13.597656 C 266.027344 13.460938 265.40625 13.085938 265.214844 12.472656 C 265.105469 12.148438 265.054688 11.597656 265.054688 10.820313 L 265.054688 8.851563 L 268.304688 8.851563" style="stroke:none;fill-rule:nonzero;fill:rgb(30.599976%,62.69989%,84.698486%);fill-opacity:1;"/>
<path d="M 290.941406 8.851563 L 294.191406 8.851563 L 294.191406 10.820313 C 294.191406 12.214844 294.703125 13.421875 295.734375 14.441406 C 296.089844 14.789063 297.230469 15.628906 299.171875 16.953125 C 301.105469 18.28125 302.496094 19.667969 303.335938 21.117188 C 304.253906 22.671875 304.71875 24.574219 304.71875 26.828125 C 304.71875 29.667969 303.957031 32.03125 302.441406 33.90625 C 300.8125 35.941406 298.59375 36.960938 295.777344 36.960938 C 293.390625 36.960938 291.300781 36.144531 289.496094 34.511719 C 287.695313 32.875 286.796875 30.886719 286.796875 28.554688 C 286.796875 26.039063 287.21875 24.550781 288.054688 24.089844 L 291.308594 24.089844 C 290.464844 24.707031 290.046875 26.199219 290.046875 28.554688 C 290.046875 29.441406 290.316406 30.363281 290.859375 31.332031 C 292.050781 33.449219 293.691406 34.511719 295.777344 34.511719 C 297.726563 34.511719 299.203125 33.679688 300.207031 32.015625 C 301.046875 30.648438 301.464844 28.949219 301.464844 26.90625 C 301.464844 24.816406 301.03125 23.113281 300.164063 21.804688 C 299.460938 20.730469 298.175781 19.632813 296.308594 18.503906 C 294.300781 17.269531 292.984375 16.277344 292.363281 15.523438 C 291.414063 14.398438 290.941406 12.949219 290.941406 11.183594 L 290.941406 8.851563" style="stroke:none;fill-rule:nonzero;fill:rgb(30.599976%,62.69989%,84.698486%);fill-opacity:1;"/>
<path d="M 313.519531 24.636719 C 312.691406 25.535156 312.277344 26.976563 312.277344 28.957031 C 312.277344 30.648438 312.722656 31.976563 313.621094 32.9375 C 314.566406 33.984375 315.890625 34.511719 317.601563 34.511719 C 321.148438 34.511719 322.925781 32.65625 322.925781 28.957031 C 322.925781 27.59375 322.746094 26.507813 322.394531 25.699219 C 321.691406 24.089844 320.09375 23.289063 317.601563 23.289063 C 315.703125 23.289063 314.34375 23.738281 313.519531 24.636719 Z M 325.28125 7.964844 L 325.28125 9.617188 C 325.28125 11.757813 323.941406 12.832031 321.257813 12.832031 C 320.28125 12.832031 319.191406 12.558594 317.988281 12.007813 C 316.78125 11.457031 315.828125 11.183594 315.121094 11.183594 C 313.222656 11.183594 312.277344 12.003906 312.277344 13.636719 L 312.277344 22.523438 C 313.277344 21.429688 315.054688 20.875 317.601563 20.875 C 320.066406 20.875 322.109375 21.617188 323.738281 23.089844 C 325.363281 24.558594 326.175781 26.519531 326.175781 28.957031 C 326.175781 30.648438 325.808594 32.09375 325.078125 33.304688 C 323.613281 35.742188 321.121094 36.960938 317.601563 36.960938 C 316.164063 36.960938 314.785156 36.679688 313.453125 36.117188 C 310.503906 34.855469 309.027344 32.835938 309.027344 30.042969 L 309.027344 13.636719 C 309.027344 12.753906 309.269531 11.949219 309.757813 11.222656 C 310.839844 9.640625 312.507813 8.851563 314.757813 8.851563 C 315.597656 8.851563 316.179688 8.875 316.503906 8.929688 C 316.75 8.960938 317.34375 9.09375 318.292969 9.335938 C 319.078125 9.523438 319.699219 9.617188 320.160156 9.617188 C 322.976563 9.617188 324.425781 9.0625 324.511719 7.964844 L 325.28125 7.964844" style="stroke:none;fill-rule:nonzero;fill:rgb(30.599976%,62.69989%,84.698486%);fill-opacity:1;"/>
<path d="M 344.140625 20.472656 C 346.417969 21.785156 347.554688 23.542969 347.554688 25.738281 L 347.554688 29.722656 C 347.554688 31.867188 346.644531 33.636719 344.832031 35.035156 C 343.179688 36.316406 341.230469 36.960938 338.980469 36.960938 C 336.433594 36.960938 334.390625 36.265625 332.84375 34.871094 C 331.21875 33.421875 330.40625 31.449219 330.40625 28.957031 C 330.40625 26.546875 330.828125 24.925781 331.664063 24.089844 L 334.917969 24.089844 C 334.078125 25.433594 333.65625 27.054688 333.65625 28.957031 C 333.65625 30.542969 334.144531 31.863281 335.121094 32.921875 C 336.09375 33.980469 337.382813 34.511719 338.980469 34.511719 C 340.523438 34.511719 341.796875 34.085938 342.800781 33.242188 C 343.800781 32.398438 344.304688 31.222656 344.304688 29.722656 L 344.304688 25.738281 C 344.304688 25.074219 344.101563 24.414063 343.695313 23.769531 C 342.800781 22.351563 341.621094 21.640625 340.160156 21.640625 L 340.160156 19.265625 C 341.515625 19.265625 342.570313 18.785156 343.328125 17.816406 C 343.980469 16.933594 344.304688 15.796875 344.304688 14.398438 C 344.304688 13.972656 344.195313 13.503906 343.980469 12.992188 C 343.464844 11.785156 342.746094 11.183594 341.824219 11.183594 L 341.824219 7.964844 C 343.394531 7.964844 344.742188 8.644531 345.871094 9.996094 C 346.992188 11.351563 347.554688 12.820313 347.554688 14.398438 C 347.554688 16.921875 346.417969 18.945313 344.140625 20.472656" style="stroke:none;fill-rule:nonzero;fill:rgb(30.599976%,62.69989%,84.698486%);fill-opacity:1;"/>
<path d="M 355.316406 14.320313 C 354.746094 16.0625 354.460938 18.503906 354.460938 21.640625 C 354.460938 28.851563 355.546875 33.960938 357.714844 36.960938 L 354.460938 36.960938 C 353.347656 35.511719 352.496094 33.0625 351.902344 29.605469 C 351.441406 26.921875 351.210938 24.269531 351.210938 21.640625 C 351.210938 17.511719 351.644531 14.441406 352.511719 12.429688 C 353.785156 9.453125 356.480469 7.964844 360.601563 7.964844 C 364.71875 7.964844 367.410156 9.4375 368.6875 12.386719 C 369.527344 14.347656 369.945313 17.433594 369.945313 21.640625 C 369.945313 24.402344 369.703125 27.203125 369.214844 30.042969 C 368.644531 33.3125 367.804688 35.621094 366.695313 36.960938 L 363.441406 36.960938 C 364.230469 35.941406 364.863281 34.523438 365.351563 32.699219 C 366.246094 29.425781 366.695313 25.738281 366.695313 21.640625 C 366.695313 18.394531 366.421875 15.957031 365.882813 14.320313 C 365.011719 11.722656 363.253906 10.417969 360.601563 10.417969 C 357.941406 10.417969 356.183594 11.722656 355.316406 14.320313" style="stroke:none;fill-rule:nonzero;fill:rgb(30.599976%,62.69989%,84.698486%);fill-opacity:1;"/>
</g>
</svg>